<svg xmlns="http://www.w3.org/2000/svg" viewBox="0 0 832.58 287" role="img" aria-label="Bullseye Event Group Logo"><g><path d="m509.74,120.95c0,17.96,11.66,31.02,31.49,31.02,25.66,0,25.66-16.79,39.42-16.79,8.16,0,13.99,7,13.99,13.29,0,20.52-32.89,30.09-53.42,30.09-47.59,0-65.55-32.19-65.55-61.81,0-39.66,24.03-66.25,64.38-66.25s61.58,27.76,61.58,55.75c0,11.66-3.5,14.69-14.93,14.69h-76.98Zm59.72-19.59c-1.86-15.63-13.53-27.06-28.69-27.06-17.03,0-27.29,10.5-31.02,27.06h59.72Z" style="fill:#fff;"/><path d="m740.67,120.95c0,17.96,11.66,31.02,31.49,31.02,25.66,0,25.66-16.79,39.42-16.79,8.16,0,13.99,7,13.99,13.29,0,20.52-32.89,30.09-53.42,30.09-47.59,0-65.55-32.19-65.55-61.81,0-39.66,24.03-66.25,64.38-66.25s61.58,27.76,61.58,55.75c0,11.66-3.5,14.69-14.93,14.69h-76.98Zm59.72-19.59c-1.86-15.63-13.53-27.06-28.69-27.06-17.03,0-27.29,10.5-31.02,27.06h59.72Z" style="fill:#fff;"/><polygon points="173.47 0 193.53 20.74 193.53 31.78 173.3 14.62 173.47 0" style="fill:#fff;"/><polygon points="173.47 21.93 193.53 40.79 193.53 51.16 173.13 32.29 173.47 21.93" style="fill:#fff;"/><polygon points="173.13 42.15 193.87 60.34 193.87 70.36 172.79 53.37 173.13 42.15" style="fill:#fff;"/><path d="m216.13,1.36v14.27l-12.41,12.07v7.48l12.75-12.4v11.05l-12.75,12.57-.16,9.18,13.42-12.07v11.38l-13.94,12.58-2.21,15.3s19.72,3.57,19.54,22.09c-.17,13.43-9.86,21.93-21.92,21.93s-21.59-9.18-21.59-21.08,9.35-19.89,14.62-21.42c.17-.17,3.23,35.35,3.23,35.35l1.87-36.54-.17-61.02L216.13,1.36Z" style="fill:#fff;"/><path d="m105.37,195.25c-1.45,0-3.58-.92-3.58-2.65,0-4.1,8.87-16.15,8.87-24.76,0-6.48-7.94-7.15-12.71-7.15-18.27,0-56.66,11.38-68.84,25.15-.79.79-1.19,1.59-1.19,2.65,0,10.72,38.39,11.38,46.6,11.38,4.5,0,9.13-.53,13.64-.53,3.04,0,4.5,0,4.5,3.97,0,3.05-.66,2.65-3.05,2.65-13.5,0-79.16,10.19-79.16,26.74,0,1.32,1.06,2.38,1.98,3.31,7.15,7.15,20.65,7.68,30.06,7.68,25.02,0,44.88-11.26,68.84-16.02l.66-.13,1.06.93c-.66,2.25-7.02,4.9-9.13,5.96-19.6,9.8-41.71,16.95-63.81,16.95-11.92,0-37.07-5.56-37.07-21.05,0-17.34,35.74-23.83,48.85-26.08-9.66-1.99-32.04-4.77-32.04-18.14,0-19.59,59.84-32.04,75.2-32.04,8.21,0,23.83,4.5,23.83,14.83,0,5.16-7.68,26.34-13.5,26.34" style="fill:#dc2228;"/><path d="m151.3,229.67c-1.72,0-3.44-.79-5.03-1.32-4.63,6.09-16.28,25.02-24.36,25.02-5.29,0-7.28-7.54-7.28-11.78,0-5.03,8.61-33.63,12.84-33.63.79,0,1.45-.53,2.12-.53,1.32,0,3.44,2.78,3.57,3.97-5.56,7.55-14.03,23.83-14.03,33.1,0,1.59.66,4.76,2.91,4.76,4.76,0,20.12-19.99,21.04-24.75.93-4.5.93-14.56,6.22-16.55.93,1.45,2.78,4.24,3.18,5.69-1.19,3.31-2.12,6.88-3.44,10.19.53.66,1.45,1.32,2.38,1.32,3.84,0,8.48-4.24,10.2-4.24.4,0,1.19,1.19,1.19,1.59,0,3.97-8.21,7.15-11.52,7.15" style="fill:#dc2228;"/><path d="m196.44,241.98c-5.69,4.77-18.67,11.25-25.94,11.25-5.69,0-13.11-5.69-13.11-11.65,0-9.13,17.74-36.93,27.27-36.93,2.78,0,12.18,7.54,12.18,10.46,0,10.99-22.11,21.71-31.64,21.18-1.59,1.85-2.25,4.24-2.25,6.62,0,3.84,3.71,6.48,7.28,6.48,11.12,0,22.24-9.66,25.95-10.06l.66,1.32-.4,1.32Zm-8.47-30.98c-7.28,0-16.41,13.64-19.59,19.59.66.4,1.45.66,2.25.66,6.75,0,21.05-8.61,21.05-16.02,0-1.99-1.72-4.24-3.71-4.24" style="fill:#dc2228;"/><path d="m244.76,244.64c-3.84,3.44-7.41,6.75-12.84,6.75-3.31,0-6.75-2.78-6.75-6.22,0-10.46,13.9-28.46,13.9-32.17l-.92-1.06c-.67.14-1.45.27-2.12.53-11.92,4.37-21.98,19.73-28.2,30.32-1.59,2.78-3.04,6.36-5.03,8.87-.8,1.06-1.99,1.06-3.04,1.06-1.59,0-2.65-1.72-2.65-3.04,0-6.35,18.27-44.08,21.32-44.08,1.59,0,3.44,2.12,3.44,3.58,0,1.85-9.4,16.81-10.72,20.91,5.03-6.22,20.78-22.64,28.86-22.64,2.52,0,4.9,3.18,4.9,5.56,0,8.87-13.63,25.15-13.63,32.17,0,1.19.93,2.12,2.12,2.12,4.63,0,8.47-4.37,10.85-4.63l.79,1.32-.26.66Z" style="fill:#dc2228;"/><path d="m274,207.3c2.78,0,5.56-.4,8.34-.4,1.19,0,2.91-.13,2.91,1.72,0,3.97-10.99,3.71-14.16,4.1-3.18,5.96-15.88,28.73-15.88,34.02,0,1.32,1.06,2.25,2.38,2.25,5.96,0,14.17-7.94,16.82-7.94.4,0,1.32.79,1.32,1.19,0,3.58-15.88,11.12-19.33,11.12s-6.36-3.44-6.36-6.75c0-8.87,8.74-25.03,12.71-33.5-1.19-.66-6.35-2.52-6.75-3.84,1.06-1.19,7.81-1.32,9.66-1.46,1.99-3.57,14.3-26.61,16.02-26.61,1.86,0,4.9,2.12,4.9,4.11,0,.4-10.98,18.8-12.57,21.98" style="fill:#dc2228;"/><path d="m423.32,193.53c-5.03,0-4.63-.27-4.63-4.5,0-8.74-3.04-28.6-14.83-28.6-23.43,0-81.02,46.34-81.02,70.56,0,10.46,12.31,16.02,21.18,16.02,23.44,0,54.68-21.05,71.63-36.41,1.19-1.06,2.65-2.65,4.5-2.65,1.32,0,5.96,1.19,5.96,3.04,0,4.5-26.08,50.44-30.19,59.44-1.06,2.25-3.04,9.26-6.09,9.26-2.65,0-5.03-1.99-5.03-4.76,0-8.21,19.46-41.04,24.62-50.31-17.87,12.57-39.84,28.6-62.61,28.6-14.83,0-31.77-11.26-31.77-27.54,0-19.32,18.66-33.62,32.43-44.48,14.96-11.91,34.42-26.61,54.28-26.61s25.94,17.34,25.94,33.89c0,3.71-.53,5.03-4.37,5.03" style="fill:#dc2228;"/><path d="m466.08,213.92c-.67,0-2.65-1.85-4.11-1.85s-2.51.79-3.58,1.58c-14.43,10.99-15.62,23.17-24.36,36.68-.66.93-1.46,1.06-2.65,1.06-1.46,0-2.38-1.45-2.38-2.78,0-6.22,18.53-44.08,21.44-44.08,1.19,0,2.25,1.33,2.38,2.25l-6.62,14.03c3.84-4.37,13.51-15.23,19.33-15.23,1.32,0,3.04,1.19,3.04,2.65,0,1.33-.66,5.69-2.51,5.69" style="fill:#dc2228;"/><path d="m496.64,231.53c-4.64,6.75-13.51,21.71-22.64,21.71-5.69,0-13.5-4.63-13.5-10.85,0-12.31,12.97-39.58,27.27-39.58,2.38,0,9.66,6.48,10.46,7.81.8,1.59,1.06,3.84,1.06,5.56,0,2.91-.8,5.82-.8,8.87,0,1.19.53,2.52,1.99,2.52,4.23,0,8.47-3.32,11.12-6.62l1.06,1.19c-1.32,5.96-10.33,10.72-16.01,9.4m-7.28-22.9c-11.12,0-23.03,25.15-23.03,34.68,0,2.91,2.12,5.69,5.16,5.69,6.89,0,20.91-15.89,20.91-22.64,0-2.12-1.32-4.1-1.32-6.36,0-2.65,1.59-5.03,1.59-7.54,0-1.32-2.12-3.84-3.31-3.84" style="fill:#dc2228;"/><path d="m539.66,243.44c0,1.86,1.06,4.24,3.31,4.24,4.9,0,6.88-3.44,9.79-3.97l1.06,1.06c-.13,2.52-9.53,6.75-11.92,6.75-5.16,0-6.62-5.16-6.62-9.26,0-2.25.27-4.37.93-6.35-3.97,4.5-13.51,17.47-19.59,17.47-4.23,0-9-6.49-9-10.46,0-6.22,12.18-34.29,18.53-34.29,1.46,0,3.71,1.32,3.71,3.05,0,.93-16.54,23.03-16.54,33.76,0,1.45,1.19,2.91,2.78,2.91,12.44,0,31.64-40.91,35.48-40.91,1.59,0,4.1,1.99,4.1,3.71,0,4.63-16.01,22.24-16.01,32.3" style="fill:#dc2228;"/><path d="m578.32,253.24c-5.03,0-8.87-4.77-11.79-8.08-4.89,9-9.53,18.01-13.9,27.27-1.99,4.37-3.58,9.4-5.96,13.37-.53,1.06-1.86,1.19-2.91,1.19s-1.99-.13-3.05-.27l-.4-.93c.14-5.03,22.24-47.79,26.35-56.26,1.32-2.52,11.65-23.57,12.18-24.09,1.85.27,2.91,2.12,2.91,3.84,0,4.37-6.22,15.62-8.47,19.99,4.76-6.22,17.08-24.75,25.28-24.75,3.18,0,6.36,4.89,6.36,7.81,0,10.07-15.62,40.91-26.61,40.91m18.8-43.56c-5.03,0-27.27,27.01-27.27,32.3,0,2.52,3.45,7.68,6.09,7.68,8.34,0,22.37-29.12,22.37-36.8,0-.79-.14-3.18-1.19-3.18" style="fill:#dc2228;"/><path d="m258.74,64.31c-5.34-8.15-10.47-12.81-11.44-13.54-2.19-1.64-7.95-5.34-16.44.82-8.49,6.17-3.29,16.3-2.88,16.71,17.13,19.59,17.26,29.72,16.85,39.45-.69,24.11-21.51,44.65-48.22,44.79-26.71.14-45.89-21.37-45.89-44.93s12.06-33.29,15.75-36.98c5.76-9.32-3.02-16.58-3.02-16.58l-.27-.41c-2.32-2.06-10.41-3.84-14.38-.69-6.39,5.88-11.04,11.85-14.43,17.68-.21.39-.42.78-.65,1.17-2.41,4.34-4.13,8.6-5.35,12.69,11.08,8.44,17.02,21.64,17.02,38.6,0,9.78-2.07,18.52-6,26.02,12.28,16.89,32.09,29.91,56.8,30.41,25.64.52,48.76-12.34,62.53-31.18v-84.04Z" style="fill:#dc2228;"/><path d="m283.25,4.56c-10.27,0-17.03,5.83-17.03,17.03v139.96c0,8.49,3.89,13.88,10.24,16,1.56-1.36,3.15-1.95,5.2-1.95,2.31,0,4.82.85,7.01,2.35,7.15-1.77,11.6-7.33,11.6-16.41V21.59c0-11.2-6.76-17.03-17.03-17.03" style="fill:#fff;"/><path d="m20.89,171.87c6.17-5.35,15.67-10.16,28.45-14.36,17.19-5.66,36.74-9.05,45.7-9.05s20.36,3.39,26.71,10.52c9.96-7.89,16.17-19.64,16.17-35.88,0-22.68-11.46-35.05-28.87-39.63v-.46c15.58-6.19,23.14-19.48,23.14-33.45,0-36.43-32.76-42.61-60.25-42.61H22C8.71,6.95,0,12.22,0,28.94v120.96c0,16.26,8.24,21.68,20.89,21.97M37.57,34.43h29.78c13.97,0,27.26,4.36,27.26,20.16,0,13.06-8.48,20.16-26.12,20.16h-30.93v-40.32Zm0,64.15h27.03c18.32,0,35.74,2.52,35.74,22.45s-16.49,22-31.16,22h-31.61v-44.45Z" style="fill:#fff;"/><path d="m335.27,178.57c2.75,0,5.24-.43,7.42-1.26l.11-.09c2.19-1.75,4.44-3.51,6.73-5.26,1.78-2.68,2.77-6.16,2.77-10.42V21.59c0-11.2-6.76-17.03-17.03-17.03s-17.03,5.83-17.03,17.03v139.96c0,11.2,6.76,17.03,17.03,17.03" style="fill:#fff;"/><path d="m376.79,133.79c-9.57,0-13.76,6.76-13.76,14.23,0,4.16,1.57,8.13,4.4,11.75,10-5.83,20.61-10.09,31.63-10.69-8.7-6.22-12.62-15.28-22.27-15.28" style="fill:#fff;"/><path d="m429.51,101.59l-14.23-3.27c-10.5-2.33-18.19-4.19-18.19-12.13,0-7.23,7.7-10.49,19.59-10.49,21.46,0,21.93,15.62,35.22,15.62,8.86,0,14.23-7,14.23-14.93,0-15.63-26.12-25.9-52.02-25.9-23.55,0-51.08,10.27-51.08,38.03,0,22.86,15.39,31.02,35.22,35.92l20.06,4.9c12.13,3.03,19.59,4.43,19.59,13.06,0,6.57-6.77,11.69-17.63,12.3,3.01,2.21,5.64,5.02,7.84,8.44,2.56,3.97,4.44,8.78,5.63,14.06,20.45-3.95,38.22-16.65,38.22-39.24,0-23.79-23.09-31.96-42.45-36.39" style="fill:#fff;"/><path d="m693.55,53.61c-9.33,0-13.99,6.53-16.33,15.16l-20.76,77.22h-.47l-21.93-79.55c-2.1-7.7-8.39-12.83-17.5-12.83s-16.56,7-16.56,16.33c0,3.96,1.4,7.7,4.2,15.86l35.46,101c-2.56,10.5-7.46,10.73-11.9,10.73h-3.5c-7,0-12.47,2.78-14.62,8.2,1.77,2.71,2.77,5.73,2.77,8.46,0,1.73-.29,3.72-.79,5.86,3.22,4.06,9.18,6.87,18.48,6.87,21.46,0,30.8-12.13,38.96-35.46l39.42-111.74c1.64-4.43,2.57-7.93,2.57-10.72,0-4.2-3.97-15.4-17.5-15.4" style="fill:#fff;"/></g></svg>