<svg xmlns="http://www.w3.org/2000/svg" viewBox="0 0 118 142.67"><path d="m59,142.67C26.46,142.67,0,116.2,0,83.66c0-15.17,5.75-29.58,16.18-40.59,3.98-4.2,10.62-4.38,14.82-.4,4.2,3.98,4.38,10.62.4,14.82-6.72,7.09-10.43,16.38-10.43,26.16,0,20.97,17.06,38.03,38.03,38.03s38.03-17.06,38.03-38.03c0-9.8-3.74-18.81-10.8-26.06-4.04-4.15-3.96-10.78.18-14.83,4.15-4.04,10.78-3.96,14.83.18,10.97,11.24,16.77,25.32,16.77,40.7,0,32.53-26.47,59-59,59" style="fill:#ed1d24;"/><polygon points="41 0 56.56 15.6 56.56 24.45 40.86 8.72 41 0" style="fill:#000;"/><polygon points="41 16.06 56.56 32.15 56.56 40.45 40.73 23.86 41 16.06" style="fill:#000;"/><polygon points="40.73 31.26 56.83 47.3 56.83 55.33 40.45 39.24 40.73 31.26" style="fill:#000;"/><polygon points="74.65 .1 74.65 11.52 64.72 21.18 64.72 27.66 74.92 17.73 74.92 26.57 64.72 36.64 64.58 43.49 75.33 33.83 75.33 42.95 64.17 53.01 62.31 65.89 59 65.53 58.97 16.59 74.65 .1" style="fill:#000;"/><path d="m59,65.19v24.09s-4.09-23.59-4.09-23.59c-7.77,1.85-13.56,8.82-13.56,17.16,0,9.75,7.9,17.65,17.65,17.65s17.65-7.9,17.65-17.65-7.9-17.65-17.65-17.65" style="fill:#000;"/></svg>
